<?xml version="1.0" encoding="utf-8"?>
<!-- Generator: Adobe Illustrator 16.0.0, SVG Export Plug-In . SVG Version: 6.00 Build 0)  -->
<!DOCTYPE svg PUBLIC "-//W3C//DTD SVG 1.1//EN" "http://www.w3.org/Graphics/SVG/1.1/DTD/svg11.dtd">
<svg version="1.1" id="Layer_1" xmlns="http://www.w3.org/2000/svg" xmlns:xlink="http://www.w3.org/1999/xlink" x="0px" y="0px"
	 width="126px" height="126px" viewBox="0 0 126 126" enable-background="new 0 0 126 126" xml:space="preserve">
<radialGradient id="SVGID_1_" cx="56.0391" cy="64.3594" r="60.5476" gradientTransform="matrix(1.017 0 0 -1 5.892 127)" gradientUnits="userSpaceOnUse">
	<stop  offset="0" style="stop-color:#FFFFFF"/>
	<stop  offset="1" style="stop-color:#A6CE56"/>
</radialGradient>
<circle fill="url(#SVGID_1_)" stroke="#000000" cx="62.884" cy="62.641" r="61.056"/>
<path fill="none" stroke="#000000" d="M26.729,74.079"/>
<path fill="none" stroke="#000000" d="M128.419,33.763"/>
<path fill="none" stroke="#000000" d="M27.146,73.598"/>
<path fill="#FFFFFF" stroke="#000000" stroke-width="2" d="M17.937,62.582c-2.703-2.226-8.7-10.355-2.805-21.5
	C25.993,15.958,52.061,9.11,67.611,11.176c11.717,1.556,23.697,15.645,25.986,19.59c2.285,3.948,5.178,9.283,4.424,20.829
	c-0.342,11.168-9.596,26.956-14.994,29.528c-6.297,2.998-9.943,3.746-15.869-1.145c-5.926-4.89-3.967-15.858-4.05-20.517
	c-0.082-4.66,0.855-10.564-4.271-14.793c-5.121-4.229-12.002-4.21-16.16-1.094c-4.154,3.118-7.425,10.024-9.388,12.321
	C31.325,58.198,25.034,65.352,17.937,62.582z"/>
<path fill="none" stroke="#000000" stroke-width="2" stroke-linecap="round" d="M18.086,62.241
	c-6.95,16.165-2.434,33.459,10.1,38.674"/>
<path stroke="#000000" stroke-width="2" d="M107.975,62.284c2.7,2.229,8.699,10.356,2.805,21.503
	c-10.861,25.123-36.928,31.971-52.481,29.904C46.583,112.135,34.6,98.049,32.316,94.1c-2.287-3.947-5.183-9.281-4.427-20.826
	c0.342-11.168,9.597-26.957,14.996-29.53c6.297-2.998,9.942-3.745,15.869,1.144c5.926,4.89,3.966,15.86,4.049,20.517
	c0.083,4.66-0.854,10.566,4.272,14.794c5.122,4.228,12.004,4.209,16.159,1.094c4.152-3.115,7.428-10.021,9.391-12.321
	C94.586,66.668,100.878,59.517,107.975,62.284z"/>
<path fill="none" d="M37.132,58.88c-5.035,49.345,40.964,63.115,70.886,22.654"/>
<g enable-background="new    ">
</g>
<g enable-background="new    ">
	<path fill="#FFFFFF" d="M44.076,78.111l-0.577,3.574c-1.142-0.02-2.126-0.202-2.953-0.548c-0.826-0.346-1.493-0.842-1.999-1.489
		c-0.507-0.647-0.86-1.525-1.062-2.634c-0.245-1.346-0.216-2.487,0.087-3.425c0.303-0.939,0.975-1.826,2.015-2.661
		s2.46-1.421,4.258-1.757c2.398-0.449,4.34-0.25,5.826,0.598s2.41,2.269,2.772,4.261c0.283,1.559,0.136,2.854-0.439,3.884
		c-0.577,1.03-1.59,1.905-3.041,2.626l-1.494-3.213c0.42-0.2,0.721-0.385,0.901-0.554c0.304-0.277,0.52-0.589,0.648-0.932
		c0.128-0.345,0.158-0.708,0.088-1.091c-0.157-0.866-0.687-1.454-1.587-1.763c-0.668-0.236-1.652-0.232-2.949,0.011
		c-1.607,0.301-2.67,0.715-3.191,1.243c-0.52,0.527-0.711,1.169-0.574,1.923c0.133,0.732,0.474,1.24,1.023,1.524
		C42.381,77.973,43.129,78.114,44.076,78.111z"/>
</g>
<g enable-background="new    ">
</g>
<g enable-background="new    ">
	<path fill="#FFFFFF" d="M47.639,85.162l2.696,4.303l-2.691,1.676l-2.696-4.303L47.639,85.162z"/>
</g>
<g enable-background="new    ">
</g>
<g enable-background="new    ">
	<path fill="#FFFFFF" d="M56.576,86.2l5.086,2.772c1.004,0.547,1.726,1.145,2.166,1.797c0.441,0.652,0.699,1.383,0.773,2.191
		c0.073,0.811-0.018,1.655-0.273,2.537c-0.255,0.881-0.627,1.76-1.116,2.635c-0.766,1.371-1.495,2.361-2.188,2.971
		c-0.69,0.609-1.418,1.039-2.183,1.289c-0.764,0.25-1.467,0.311-2.112,0.18c-0.88-0.176-1.626-0.43-2.236-0.762l-5.086-2.773
		L56.576,86.2z M58.376,90.974l-3.917,7.015l0.839,0.457c0.716,0.39,1.275,0.575,1.68,0.557c0.406-0.02,0.822-0.211,1.249-0.576
		s0.928-1.062,1.501-2.09c0.76-1.359,1.088-2.395,0.986-3.105s-0.598-1.309-1.484-1.791L58.376,90.974z"/>
</g>
<g enable-background="new    ">
</g>
<g enable-background="new    ">
	<path fill="#FFFFFF" d="M67.051,91.191l10.364-1.773l0.509,3.077l-6.487,1.11l0.379,2.291l6.019-1.03l0.486,2.94l-6.019,1.03
		l0.47,2.843l6.676-1.143l0.54,3.264l-10.553,1.806L67.051,91.191z"/>
</g>
<g enable-background="new    ">
</g>
<g enable-background="new    ">
	<path fill="#FFFFFF" d="M79.126,88.469l6.06-4.156c1.011-0.693,1.984-0.938,2.922-0.734c0.938,0.202,1.698,0.728,2.283,1.574
		c0.49,0.71,0.719,1.451,0.685,2.225c-0.023,0.516-0.215,1.041-0.574,1.578c0.896-0.31,1.696-0.333,2.4-0.07
		c0.704,0.262,1.321,0.775,1.85,1.54c0.43,0.623,0.69,1.269,0.782,1.94c0.091,0.67,0.018,1.301-0.221,1.891
		c-0.146,0.367-0.466,0.778-0.957,1.236c-0.653,0.609-1.1,0.996-1.338,1.159l-5.589,3.833L79.126,88.469z M85.648,90.941
		l1.408-0.965c0.505-0.347,0.787-0.688,0.848-1.022c0.06-0.335-0.041-0.691-0.302-1.067c-0.241-0.35-0.529-0.557-0.862-0.617
		c-0.334-0.061-0.746,0.076-1.237,0.413l-1.429,0.98L85.648,90.941z M88.911,95.662l1.65-1.132c0.558-0.383,0.872-0.766,0.944-1.149
		c0.072-0.383-0.024-0.766-0.288-1.148c-0.245-0.355-0.557-0.563-0.932-0.623c-0.376-0.062-0.847,0.104-1.413,0.492l-1.644,1.127
		L88.911,95.662z"/>
</g>
<g enable-background="new    ">
</g>
<g enable-background="new    ">
	<path fill="#FFFFFF" d="M90.49,79.657l2.662-2.89l10.83,9.827l-2.662,2.89L90.49,79.657z"/>
</g>
<path fill="none" stroke="#000000" stroke-width="2" stroke-linecap="round" d="M108.676,62.415
	c6.95-16.164,2.434-33.459-10.099-38.674"/>
</svg>
